<svg width="154" height="170" viewBox="0 0 154 170" fill="none" xmlns="http://www.w3.org/2000/svg">
<mask id="mask0_11_2" style="mask-type:luminance" maskUnits="userSpaceOnUse" x="29" y="0" width="125" height="124">
<path d="M153.333 0H29.3333V124H153.333V0Z" fill="white"/>
</mask>
<g mask="url(#mask0_11_2)">
<mask id="mask1_11_2" style="mask-type:luminance" maskUnits="userSpaceOnUse" x="34" y="6" width="113" height="113">
<path d="M34.9948 6.61456H146.839V118.464H34.9948V6.61456Z" fill="white"/>
</mask>
<g mask="url(#mask1_11_2)">
<mask id="mask2_11_2" style="mask-type:luminance" maskUnits="userSpaceOnUse" x="34" y="6" width="113" height="113">
<path d="M90.9167 6.61456C60.0312 6.61456 34.9948 31.6562 34.9948 62.5416C34.9948 93.4271 60.0312 118.464 90.9167 118.464C121.802 118.464 146.839 93.4271 146.839 62.5416C146.839 31.6562 121.802 6.61456 90.9167 6.61456Z" fill="white"/>
</mask>
<g mask="url(#mask2_11_2)">
<path d="M90.9166 6.61456C60.0312 6.61456 34.9948 31.6562 34.9948 62.5416C34.9948 93.4269 60.0312 118.463 90.9166 118.463C121.802 118.463 146.838 93.4269 146.838 62.5416C146.838 31.6562 121.802 6.61456 90.9166 6.61456Z" stroke="black" stroke-width="2.57129"/>
</g>
</g>
</g>
<mask id="mask3_11_2" style="mask-type:luminance" maskUnits="userSpaceOnUse" x="14" y="96" width="61" height="59">
<path d="M74.6667 96H14.6667V154.667H74.6667V96Z" fill="white"/>
</mask>
<g mask="url(#mask3_11_2)">
<mask id="mask4_11_2" style="mask-type:luminance" maskUnits="userSpaceOnUse" x="21" y="102" width="47" height="47">
<path d="M21.8854 102.589H67.6042V148.302H21.8854V102.589Z" fill="white"/>
</mask>
<g mask="url(#mask4_11_2)">
<mask id="mask5_11_2" style="mask-type:luminance" maskUnits="userSpaceOnUse" x="21" y="102" width="47" height="47">
<path d="M44.7448 102.589C32.1198 102.589 21.8854 112.823 21.8854 125.443C21.8854 138.068 32.1198 148.302 44.7448 148.302C57.3698 148.302 67.6042 138.068 67.6042 125.443C67.6042 112.823 57.3698 102.589 44.7448 102.589Z" fill="white"/>
</mask>
<g mask="url(#mask5_11_2)">
<mask id="mask6_11_2" style="mask-type:luminance" maskUnits="userSpaceOnUse" x="21" y="101" width="47" height="49">
<path d="M68 101.333H21.3333V149.333H68V101.333Z" fill="white"/>
</mask>
<g mask="url(#mask6_11_2)">
<mask id="mask7_11_2" style="mask-type:luminance" maskUnits="userSpaceOnUse" x="21" y="102" width="47" height="47">
<path d="M21.8854 102.589H67.6042V148.302H21.8854V102.589Z" fill="white"/>
</mask>
<g mask="url(#mask7_11_2)">
<mask id="mask8_11_2" style="mask-type:luminance" maskUnits="userSpaceOnUse" x="21" y="102" width="47" height="47">
<path d="M44.7448 102.589C32.1198 102.589 21.8854 112.823 21.8854 125.443C21.8854 138.068 32.1198 148.302 44.7448 148.302C57.3698 148.302 67.6042 138.068 67.6042 125.443C67.6042 112.823 57.3698 102.589 44.7448 102.589Z" fill="white"/>
</mask>
<g mask="url(#mask8_11_2)">
<path d="M21.8854 102.589H67.6042V148.302H21.8854V102.589Z" fill="#FF914D"/>
</g>
</g>
</g>
</g>
</g>
<mask id="mask9_11_2" style="mask-type:luminance" maskUnits="userSpaceOnUse" x="21" y="102" width="47" height="47">
<path d="M21.8854 102.589H67.6042V148.302H21.8854V102.589Z" fill="white"/>
</mask>
<g mask="url(#mask9_11_2)">
<mask id="mask10_11_2" style="mask-type:luminance" maskUnits="userSpaceOnUse" x="21" y="102" width="47" height="47">
<path d="M44.7448 102.583C32.1198 102.583 21.8854 112.818 21.8854 125.443C21.8854 138.068 32.1198 148.302 44.7448 148.302C57.3698 148.302 67.6042 138.068 67.6042 125.443C67.6042 112.818 57.3698 102.583 44.7448 102.583Z" fill="white"/>
</mask>
<g mask="url(#mask10_11_2)">
<path d="M44.7447 102.583C32.1198 102.583 21.8854 112.818 21.8854 125.443C21.8854 138.068 32.1198 148.302 44.7447 148.302C57.3697 148.302 67.6041 138.068 67.6041 125.443C67.6041 112.818 57.3697 102.583 44.7447 102.583Z" stroke="black" stroke-width="2.57129"/>
</g>
</g>
</g>
<mask id="mask11_11_2" style="mask-type:luminance" maskUnits="userSpaceOnUse" x="0" y="81" width="90" height="89">
<path d="M89.3333 81.3334H0V169.333H89.3333V81.3334Z" fill="white"/>
</mask>
<g mask="url(#mask11_11_2)">
<mask id="mask12_11_2" style="mask-type:luminance" maskUnits="userSpaceOnUse" x="6" y="87" width="77" height="77">
<path d="M6.94791 87.6459H82.5417V163.24H6.94791V87.6459Z" fill="white"/>
</mask>
<g mask="url(#mask12_11_2)">
<mask id="mask13_11_2" style="mask-type:luminance" maskUnits="userSpaceOnUse" x="6" y="87" width="77" height="77">
<path d="M44.7448 87.6459C23.8698 87.6459 6.94791 104.568 6.94791 125.443C6.94791 146.318 23.8698 163.24 44.7448 163.24C65.6198 163.24 82.5417 146.318 82.5417 125.443C82.5417 104.568 65.6198 87.6459 44.7448 87.6459Z" fill="white"/>
</mask>
<g mask="url(#mask13_11_2)">
<path d="M44.7447 87.6459C23.8698 87.6459 6.94791 104.568 6.94791 125.443C6.94791 146.318 23.8698 163.24 44.7447 163.24C65.6197 163.24 82.5416 146.318 82.5416 125.443C82.5416 104.568 65.6197 87.6459 44.7447 87.6459Z" stroke="black" stroke-width="2.57129"/>
</g>
</g>
</g>
<mask id="mask14_11_2" style="mask-type:luminance" maskUnits="userSpaceOnUse" x="44" y="14" width="95" height="96">
<path d="M138.667 14.6667H44V109.333H138.667V14.6667Z" fill="white"/>
</mask>
<g mask="url(#mask14_11_2)">
<mask id="mask15_11_2" style="mask-type:luminance" maskUnits="userSpaceOnUse" x="49" y="21" width="84" height="83">
<path d="M49.6458 21.2709H132.187V103.813H49.6458V21.2709Z" fill="white"/>
</mask>
<g mask="url(#mask15_11_2)">
<mask id="mask16_11_2" style="mask-type:luminance" maskUnits="userSpaceOnUse" x="49" y="21" width="84" height="83">
<path d="M90.9166 21.2709C68.125 21.2709 49.6458 39.75 49.6458 62.5417C49.6458 85.3334 68.125 103.813 90.9166 103.813C113.708 103.813 132.187 85.3334 132.187 62.5417C132.187 39.75 113.708 21.2709 90.9166 21.2709Z" fill="white"/>
</mask>
<g mask="url(#mask16_11_2)">
<mask id="mask17_11_2" style="mask-type:luminance" maskUnits="userSpaceOnUse" x="49" y="20" width="85" height="84">
<path d="M133.333 20H49.3333V104H133.333V20Z" fill="white"/>
</mask>
<g mask="url(#mask17_11_2)">
<mask id="mask18_11_2" style="mask-type:luminance" maskUnits="userSpaceOnUse" x="49" y="21" width="84" height="83">
<path d="M49.6458 21.2709H132.187V103.813H49.6458V21.2709Z" fill="white"/>
</mask>
<g mask="url(#mask18_11_2)">
<mask id="mask19_11_2" style="mask-type:luminance" maskUnits="userSpaceOnUse" x="49" y="21" width="84" height="83">
<path d="M90.9166 21.2709C68.125 21.2709 49.6458 39.75 49.6458 62.5417C49.6458 85.3334 68.125 103.813 90.9166 103.813C113.708 103.813 132.187 85.3334 132.187 62.5417C132.187 39.75 113.708 21.2709 90.9166 21.2709Z" fill="white"/>
</mask>
<g mask="url(#mask19_11_2)">
<path d="M49.6458 21.2709H132.187V103.813H49.6458V21.2709Z" fill="#FFDE59"/>
</g>
</g>
</g>
</g>
</g>
<mask id="mask20_11_2" style="mask-type:luminance" maskUnits="userSpaceOnUse" x="49" y="21" width="84" height="83">
<path d="M49.6458 21.2709H132.187V103.807H49.6458V21.2709Z" fill="white"/>
</mask>
<g mask="url(#mask20_11_2)">
<mask id="mask21_11_2" style="mask-type:luminance" maskUnits="userSpaceOnUse" x="49" y="21" width="84" height="83">
<path d="M90.9166 21.2709C68.125 21.2709 49.6458 39.75 49.6458 62.5417C49.6458 85.3334 68.125 103.807 90.9166 103.807C113.708 103.807 132.187 85.3334 132.187 62.5417C132.187 39.75 113.708 21.2709 90.9166 21.2709Z" fill="white"/>
</mask>
<g mask="url(#mask21_11_2)">
<path d="M90.9166 21.2709C68.125 21.2709 49.6458 39.75 49.6458 62.5417C49.6458 85.3333 68.125 103.807 90.9166 103.807C113.708 103.807 132.187 85.3333 132.187 62.5417C132.187 39.75 113.708 21.2709 90.9166 21.2709Z" stroke="black" stroke-width="2.57129"/>
</g>
</g>
</g>
</svg>
